<?xml version="1.0" standalone="no"?>
<!DOCTYPE svg PUBLIC "-//W3C//DTD SVG 20010904//EN"
 "http://www.w3.org/TR/2001/REC-SVG-20010904/DTD/svg10.dtd">
<svg version="1.0" xmlns="http://www.w3.org/2000/svg"
 width="170.000000pt" height="170.000000pt" viewBox="0 0 170.000000 170.000000"
 preserveAspectRatio="xMidYMid meet">

<g transform="translate(0.000000,170.000000) scale(0.100000,-0.100000)"
fill="#000000" stroke="none">
<path d="M140 1580 c-20 -5 -27 -15 -34 -49 -7 -30 -6 -49 2 -62 16 -24 15
-153 0 -195 -9 -27 -9 -38 2 -58 10 -19 12 -56 7 -150 -7 -143 -2 -153 60
-142 21 4 117 14 213 22 96 8 185 17 196 19 29 6 36 40 15 66 -16 20 -21 20
-111 11 -52 -6 -134 -14 -182 -17 l-88 -6 0 99 0 99 115 12 c63 7 119 10 124
7 16 -10 59 12 66 35 5 15 1 27 -13 42 -19 19 -25 19 -94 9 -40 -6 -101 -14
-135 -18 l-63 -7 0 86 0 85 88 7 c48 4 121 8 163 9 83 2 109 14 109 51 0 42
-22 49 -113 37 -165 -23 -237 -26 -250 -9 -15 18 -45 25 -77 17z"/>
<path d="M1321 1578 c-16 -5 -21 -16 -21 -43 0 -46 -27 -99 -107 -208 -35 -48
-81 -119 -102 -157 l-37 -70 -23 55 c-12 29 -54 105 -93 167 -81 130 -102 171
-112 213 -4 16 -13 33 -19 37 -19 12 -64 9 -75 -4 -6 -8 -11 -126 -13 -317
l-3 -305 25 -8 c15 -5 36 -5 50 0 l24 9 -3 204 -3 204 35 -55 c61 -95 137
-253 143 -297 7 -53 21 -65 69 -61 35 3 39 6 50 44 16 56 45 111 133 249 74
116 76 119 79 85 1 -19 -1 -107 -6 -195 -5 -88 -7 -165 -5 -172 7 -19 61 -26
84 -11 20 13 20 23 21 315 0 166 -3 306 -6 311 -8 14 -60 20 -85 10z"/>
<path d="M1492 837 c-24 -26 -27 -48 -12 -78 12 -21 50 -25 68 -7 9 9 13 8 17
-4 8 -20 -19 -73 -40 -81 -19 -8 -20 -33 -1 -40 24 -9 65 31 76 74 8 28 8 51
-1 82 -20 77 -65 99 -107 54z"/>
<path d="M1276 755 c-10 -8 -68 -31 -128 -51 -94 -31 -113 -35 -133 -24 -25
13 -80 6 -92 -13 -12 -20 -2 -92 16 -112 24 -25 54 -128 52 -176 0 -22 7 -46
18 -60 21 -28 65 -172 63 -208 -1 -14 5 -35 14 -49 13 -20 21 -23 51 -19 20 4
43 13 52 21 9 7 90 37 181 66 91 28 171 58 179 65 9 8 11 23 7 39 -9 36 -45
43 -98 18 -60 -28 -276 -97 -283 -91 -7 7 -57 180 -53 183 14 10 204 76 218
76 10 0 28 8 41 19 20 16 22 22 11 45 -15 33 -53 43 -89 22 -44 -26 -203 -85
-207 -78 -5 8 -46 147 -46 155 0 6 236 83 283 92 35 7 54 44 38 74 -14 25 -65
28 -95 6z"/>
<path d="M707 745 c-16 -8 -21 -18 -19 -37 5 -40 -29 -108 -105 -211 -37 -51
-84 -123 -104 -160 l-36 -68 -21 51 c-12 28 -60 114 -106 191 -47 78 -91 160
-97 183 -6 22 -16 44 -23 48 -18 12 -63 9 -74 -4 -6 -8 -11 -126 -13 -317 l-3
-305 25 -8 c15 -5 36 -5 50 0 l24 9 -3 204 -3 204 35 -55 c61 -95 137 -253
143 -297 7 -53 21 -65 69 -61 34 3 38 7 49 43 6 22 22 60 35 85 38 74 174 284
177 274 2 -5 -1 -93 -5 -194 -5 -102 -7 -190 -4 -197 6 -19 60 -26 83 -11 20
13 21 23 21 315 0 166 -3 307 -6 312 -9 14 -65 19 -89 6z"/>
</g>
</svg>
