<?xml version="1.0" standalone="no"?>
<!DOCTYPE svg PUBLIC "-//W3C//DTD SVG 20010904//EN"
 "http://www.w3.org/TR/2001/REC-SVG-20010904/DTD/svg10.dtd">
<svg version="1.0" xmlns="http://www.w3.org/2000/svg"
 width="100.000000pt" height="100.000000pt" viewBox="0 0 100.000000 100.000000"
 preserveAspectRatio="xMidYMid meet">

<g transform="translate(0.000000,100.000000) scale(0.100000,-0.100000)"
fill="#000000" stroke="none">
<path d="M191 966 c-51 -18 -111 -74 -135 -125 -18 -41 -21 -64 -21 -196 1
-115 5 -164 19 -210 25 -85 69 -163 122 -218 51 -53 151 -124 161 -114 3 4 1
7 -5 7 -6 0 -29 26 -52 57 -54 76 -84 174 -84 278 0 69 4 90 30 145 38 80 91
134 169 171 108 51 205 61 306 29 117 -36 196 -117 220 -226 11 -47 10 -60 -4
-89 -21 -43 -34 -50 -247 -120 -96 -32 -179 -60 -183 -62 -18 -11 38 -52 85
-63 79 -19 202 13 283 73 18 14 22 13 47 -4 15 -11 30 -29 33 -40 5 -16 10
-18 18 -10 9 9 12 103 12 326 0 436 32 405 -425 404 -221 0 -325 -4 -349 -13z"/>
<path d="M493 590 c-18 -10 -39 -33 -48 -49 -18 -37 -20 -85 -2 -78 6 3 60 22
120 42 59 20 107 41 107 46 0 6 -12 21 -26 34 -34 32 -104 34 -151 5z"/>
</g>
</svg>
