<?xml version="1.0" standalone="no"?>
<!DOCTYPE svg PUBLIC "-//W3C//DTD SVG 20010904//EN"
 "http://www.w3.org/TR/2001/REC-SVG-20010904/DTD/svg10.dtd">
<svg version="1.0" xmlns="http://www.w3.org/2000/svg"
 width="100.000000pt" height="100.000000pt" viewBox="0 0 100.000000 100.000000"
 preserveAspectRatio="xMidYMid meet">

<g transform="translate(0.000000,100.000000) scale(0.100000,-0.100000)"
fill="#000000" stroke="none">
<path d="M35 977 c-31 -27 -47 -103 -24 -118 8 -5 234 -9 503 -9 l489 0 -5 52
c-4 40 -11 57 -32 75 l-27 23 -439 0 -439 0 -26 -23z"/>
<path d="M230 447 c0 -30 51 -115 88 -149 57 -51 105 -70 182 -70 108 -1 204
61 249 162 28 62 27 66 -19 62 -23 -2 -40 -9 -40 -17 0 -25 -61 -95 -102 -116
-33 -17 -54 -20 -104 -17 -79 5 -135 40 -166 103 -12 25 -27 44 -33 42 -5 -2
-20 0 -32 4 -16 6 -23 5 -23 -4z"/>
<path d="M340 438 c0 -27 57 -86 97 -99 46 -15 118 -6 152 18 14 11 36 35 49
54 l24 34 -74 5 c-64 4 -73 3 -76 -12 -4 -21 -32 -24 -32 -4 0 11 -18 15 -70
18 -61 3 -70 1 -70 -14z"/>
<path d="M0 255 l0 -197 29 -29 29 -29 442 0 442 0 29 29 29 29 0 196 0 196
-100 -1 c-68 -1 -100 -5 -100 -13 0 -27 -51 -116 -85 -151 -149 -149 -402
-103 -491 89 -13 28 -24 56 -24 62 0 8 -33 12 -100 13 l-100 2 0 -196z"/>
</g>
</svg>
