<?xml version="1.0" standalone="no"?>
<!DOCTYPE svg PUBLIC "-//W3C//DTD SVG 20010904//EN"
 "http://www.w3.org/TR/2001/REC-SVG-20010904/DTD/svg10.dtd">
<svg version="1.0" xmlns="http://www.w3.org/2000/svg"
 width="100.000000pt" height="100.000000pt" viewBox="0 0 100.000000 100.000000"
 preserveAspectRatio="xMidYMid meet">

<g transform="translate(0.000000,100.000000) scale(0.100000,-0.100000)"
fill="#000000" stroke="none">
<path d="M0 500 l0 -500 500 0 500 0 0 500 0 500 -500 0 -500 0 0 -500z m565
84 c38 -55 40 -56 53 -35 8 11 23 21 34 21 19 0 19 -1 -2 -35 l-22 -35 22 -35
c22 -35 22 -35 1 -35 -11 0 -26 10 -32 22 l-12 22 -15 -22 c-17 -26 -40 -28
-68 -7 -10 8 -22 15 -25 15 -3 0 -21 -22 -39 -49 -21 -31 -41 -49 -52 -48 -10
1 -18 4 -18 7 0 3 20 34 45 68 l45 62 -22 30 c-20 28 -37 42 -23 20 4 -6 -12
-10 -39 -10 -25 0 -46 -4 -46 -10 0 -5 16 -10 35 -10 28 0 35 -4 35 -20 0 -16
-7 -20 -35 -20 -19 0 -35 -4 -35 -10 0 -5 21 -10 46 -10 40 0 45 -2 34 -15 -8
-10 -30 -15 -61 -15 l-49 0 0 70 0 70 80 0 c62 0 81 -3 88 -16 8 -14 12 -14
30 -3 l21 13 -21 29 c-17 24 -18 31 -7 38 8 5 14 9 15 9 0 0 18 -25 39 -56z
m236 -33 c37 -37 37 -65 -1 -103 -26 -25 -36 -29 -63 -24 -78 15 -92 106 -22
144 33 18 55 14 86 -17z m-491 4 c0 -9 -9 -15 -25 -15 -24 0 -25 -3 -25 -55 0
-42 -3 -55 -15 -55 -11 0 -15 13 -15 54 0 52 -1 55 -27 58 -14 2 -28 9 -31 16
-3 9 15 12 67 12 56 0 71 -3 71 -15z"/>
<path d="M542 528 c-16 -16 -15 -43 2 -57 21 -18 41 21 26 49 -13 24 -13 23
-28 8z"/>
<path d="M712 523 c-16 -31 3 -63 37 -63 24 0 32 5 37 25 4 15 1 32 -6 40 -17
20 -57 19 -68 -2z"/>
</g>
</svg>
